<svg xmlns="http://www.w3.org/2000/svg" width="404" height="385" viewBox="0 0 404 385" font-family="ui-monospace, 'SF Mono', Menlo, Consolas, monospace" font-size="16">
<style>
  .p { fill: #9bd684; } .cmd { fill: #e6ecf4; }
  .hdr { fill: #e8c66a; } .dim { fill: #a9b6c4; font-size: 14px; }
  .map { font-size: 17px; }
  text { white-space: pre; }
</style>
<rect width="404" height="385" rx="10" fill="#0c1013"/>
<circle cx="22" cy="22" r="6" fill="#ff5f57"/><circle cx="42" cy="22" r="6" fill="#febc2e"/><circle cx="62" cy="22" r="6" fill="#28c840"/>
<text x="202" y="27" text-anchor="middle" fill="#7d8894" font-size="13">irb — terra</text>
<g opacity="0"><text x="18" y="70" class="p">&gt;&gt; <tspan class="cmd">eden! width: 16, height: 9</tspan></text>
<text x="18" y="94" class="hdr">☀️  Terra — day 0</text>
<text y="118" class="map" text-anchor="middle"><tspan x="29">🌼</tspan><tspan x="52">🟫</tspan><tspan x="75">🟫</tspan><tspan x="98">🟫</tspan><tspan x="121">🟫</tspan><tspan x="144">🟫</tspan><tspan x="167">🟫</tspan><tspan x="190">🟫</tspan><tspan x="213">🟫</tspan><tspan x="236">🟫</tspan><tspan x="259">🟫</tspan><tspan x="282">🌼</tspan><tspan x="305">🟫</tspan><tspan x="328">🟫</tspan><tspan x="351">🟫</tspan><tspan x="374">🟫</tspan></text>
<text y="142" class="map" text-anchor="middle"><tspan x="29">🟫</tspan><tspan x="52">🟫</tspan><tspan x="75">🟫</tspan><tspan x="98">🟫</tspan><tspan x="121">🟫</tspan><tspan x="144">🟫</tspan><tspan x="167">🟫</tspan><tspan x="190">🟫</tspan><tspan x="213">🟫</tspan><tspan x="236">🟫</tspan><tspan x="259">🪷</tspan><tspan x="282">🟫</tspan><tspan x="305">🟫</tspan><tspan x="328">🟫</tspan><tspan x="351">🟫</tspan><tspan x="374">🟫</tspan></text>
<text y="166" class="map" text-anchor="middle"><tspan x="29">🟫</tspan><tspan x="52">🟫</tspan><tspan x="75">🟫</tspan><tspan x="98">🌿</tspan><tspan x="121">🟫</tspan><tspan x="144">🟫</tspan><tspan x="167">🌿</tspan><tspan x="190">🟨</tspan><tspan x="213">🟫</tspan><tspan x="236">🌊</tspan><tspan x="259">🐟</tspan><tspan x="282">🪷</tspan><tspan x="305">🟫</tspan><tspan x="328">🌿</tspan><tspan x="351">🟫</tspan><tspan x="374">🟫</tspan></text>
<text y="190" class="map" text-anchor="middle"><tspan x="29">🟫</tspan><tspan x="52">🟫</tspan><tspan x="75">🟫</tspan><tspan x="98">🟫</tspan><tspan x="121">🟫</tspan><tspan x="144">🟫</tspan><tspan x="167">🟨</tspan><tspan x="190">🟨</tspan><tspan x="213">🟨</tspan><tspan x="236">🟫</tspan><tspan x="259">🪷</tspan><tspan x="282">🟫</tspan><tspan x="305">⛰️</tspan><tspan x="328">🟫</tspan><tspan x="351">🟫</tspan><tspan x="374">🟫</tspan></text>
<text y="214" class="map" text-anchor="middle"><tspan x="29">🟫</tspan><tspan x="52">🟫</tspan><tspan x="75">🟫</tspan><tspan x="98">🟫</tspan><tspan x="121">🟫</tspan><tspan x="144">🟫</tspan><tspan x="167">🟫</tspan><tspan x="190">🟨</tspan><tspan x="213">🟫</tspan><tspan x="236">🟫</tspan><tspan x="259">🟫</tspan><tspan x="282">⛰️</tspan><tspan x="305">🦅</tspan><tspan x="328">🐇</tspan><tspan x="351">🟫</tspan><tspan x="374">🟫</tspan></text>
<text y="238" class="map" text-anchor="middle"><tspan x="29">🟫</tspan><tspan x="52">🐢</tspan><tspan x="75">🟫</tspan><tspan x="98">🌿</tspan><tspan x="121">🟫</tspan><tspan x="144">🟫</tspan><tspan x="167">🟫</tspan><tspan x="190">🟫</tspan><tspan x="213">🐇</tspan><tspan x="236">🟫</tspan><tspan x="259">⛰️</tspan><tspan x="282">⛰️</tspan><tspan x="305">🌲</tspan><tspan x="328">🌲</tspan><tspan x="351">🌲</tspan><tspan x="374">🟫</tspan></text>
<text y="262" class="map" text-anchor="middle"><tspan x="29">🟫</tspan><tspan x="52">🟫</tspan><tspan x="75">🟫</tspan><tspan x="98">🟫</tspan><tspan x="121">🌊</tspan><tspan x="144">🌼</tspan><tspan x="167">🟫</tspan><tspan x="190">🐇</tspan><tspan x="213">🟫</tspan><tspan x="236">🟫</tspan><tspan x="259">🟫</tspan><tspan x="282">⛰️</tspan><tspan x="305">⛰️</tspan><tspan x="328">🌲</tspan><tspan x="351">🟫</tspan><tspan x="374">🟫</tspan></text>
<text y="286" class="map" text-anchor="middle"><tspan x="29">🟫</tspan><tspan x="52">🟫</tspan><tspan x="75">🟫</tspan><tspan x="98">🐟</tspan><tspan x="121">🌊</tspan><tspan x="144">🌊</tspan><tspan x="167">🟫</tspan><tspan x="190">🟫</tspan><tspan x="213">🟫</tspan><tspan x="236">🟫</tspan><tspan x="259">🟫</tspan><tspan x="282">🟫</tspan><tspan x="305">⛰️</tspan><tspan x="328">🟫</tspan><tspan x="351">🟫</tspan><tspan x="374">🟫</tspan></text>
<text y="310" class="map" text-anchor="middle"><tspan x="29">🟫</tspan><tspan x="52">🌿</tspan><tspan x="75">🟫</tspan><tspan x="98">🟫</tspan><tspan x="121">🌊</tspan><tspan x="144">🟫</tspan><tspan x="167">🟫</tspan><tspan x="190">🟫</tspan><tspan x="213">🟫</tspan><tspan x="236">🟫</tspan><tspan x="259">🟫</tspan><tspan x="282">🟫</tspan><tspan x="305">🌼</tspan><tspan x="328">🟫</tspan><tspan x="351">🟫</tspan><tspan x="374">🟫</tspan></text>
<text x="18" y="334" class="dim">🐾 9 animals · 🌱 12 plants</text><animate attributeName="opacity" dur="18.2s" repeatCount="indefinite" calcMode="discrete" keyTimes="0;0.0000;0.1429;1" values="0;1;1;0"/></g><g opacity="0"><text x="18" y="70" class="p">&gt;&gt; <tspan class="cmd">spawn(:rabbit, count: 3) { |r| r.hop_toward :water }</tspan></text>
<text x="18" y="94" class="hdr">☀️  Terra — day 1</text>
<text y="118" class="map" text-anchor="middle"><tspan x="29">🌼</tspan><tspan x="52">🟫</tspan><tspan x="75">🟫</tspan><tspan x="98">🟫</tspan><tspan x="121">🟫</tspan><tspan x="144">🟫</tspan><tspan x="167">🟫</tspan><tspan x="190">🟫</tspan><tspan x="213">🟫</tspan><tspan x="236">🟫</tspan><tspan x="259">🟫</tspan><tspan x="282">🐇</tspan><tspan x="305">🟫</tspan><tspan x="328">🟫</tspan><tspan x="351">🟫</tspan><tspan x="374">🟫</tspan></text>
<text y="142" class="map" text-anchor="middle"><tspan x="29">🌼</tspan><tspan x="52">🟫</tspan><tspan x="75">🟫</tspan><tspan x="98">🟫</tspan><tspan x="121">🟫</tspan><tspan x="144">🟫</tspan><tspan x="167">🟫</tspan><tspan x="190">🟫</tspan><tspan x="213">🟫</tspan><tspan x="236">🟫</tspan><tspan x="259">🪷</tspan><tspan x="282">🟫</tspan><tspan x="305">🟫</tspan><tspan x="328">🟫</tspan><tspan x="351">🟫</tspan><tspan x="374">🟫</tspan></text>
<text y="166" class="map" text-anchor="middle"><tspan x="29">🟫</tspan><tspan x="52">🟫</tspan><tspan x="75">🟫</tspan><tspan x="98">🐇</tspan><tspan x="121">🟫</tspan><tspan x="144">🟫</tspan><tspan x="167">🌿</tspan><tspan x="190">🟨</tspan><tspan x="213">🟫</tspan><tspan x="236">🐟</tspan><tspan x="259">🐟</tspan><tspan x="282">🪷</tspan><tspan x="305">🟫</tspan><tspan x="328">🌿</tspan><tspan x="351">🟫</tspan><tspan x="374">🟫</tspan></text>
<text y="190" class="map" text-anchor="middle"><tspan x="29">🟫</tspan><tspan x="52">🟫</tspan><tspan x="75">🟫</tspan><tspan x="98">🟫</tspan><tspan x="121">🟫</tspan><tspan x="144">🟫</tspan><tspan x="167">🟨</tspan><tspan x="190">🟨</tspan><tspan x="213">🟨</tspan><tspan x="236">🟫</tspan><tspan x="259">🪷</tspan><tspan x="282">🟫</tspan><tspan x="305">🦅</tspan><tspan x="328">🟫</tspan><tspan x="351">🟫</tspan><tspan x="374">🟫</tspan></text>
<text y="214" class="map" text-anchor="middle"><tspan x="29">🟫</tspan><tspan x="52">🟫</tspan><tspan x="75">🟫</tspan><tspan x="98">🟫</tspan><tspan x="121">🟫</tspan><tspan x="144">🟫</tspan><tspan x="167">🟫</tspan><tspan x="190">🟨</tspan><tspan x="213">🐇</tspan><tspan x="236">🟫</tspan><tspan x="259">🟫</tspan><tspan x="282">⛰️</tspan><tspan x="305">⛰️</tspan><tspan x="328">🌲</tspan><tspan x="351">🟫</tspan><tspan x="374">🟫</tspan></text>
<text y="238" class="map" text-anchor="middle"><tspan x="29">🟫</tspan><tspan x="52">🟫</tspan><tspan x="75">🐢</tspan><tspan x="98">🌿</tspan><tspan x="121">🟫</tspan><tspan x="144">🟫</tspan><tspan x="167">🟫</tspan><tspan x="190">🟫</tspan><tspan x="213">🐇</tspan><tspan x="236">🟫</tspan><tspan x="259">⛰️</tspan><tspan x="282">⛰️</tspan><tspan x="305">🌲</tspan><tspan x="328">🌲</tspan><tspan x="351">🐇</tspan><tspan x="374">🟫</tspan></text>
<text y="262" class="map" text-anchor="middle"><tspan x="29">🟫</tspan><tspan x="52">🟫</tspan><tspan x="75">🟫</tspan><tspan x="98">🟫</tspan><tspan x="121">🌊</tspan><tspan x="144">🌼</tspan><tspan x="167">🟫</tspan><tspan x="190">🐇</tspan><tspan x="213">🟫</tspan><tspan x="236">🟫</tspan><tspan x="259">🟫</tspan><tspan x="282">⛰️</tspan><tspan x="305">⛰️</tspan><tspan x="328">🌲</tspan><tspan x="351">🟫</tspan><tspan x="374">🟫</tspan></text>
<text y="286" class="map" text-anchor="middle"><tspan x="29">🐇</tspan><tspan x="52">🟫</tspan><tspan x="75">🟫</tspan><tspan x="98">🌊</tspan><tspan x="121">🐟</tspan><tspan x="144">🌊</tspan><tspan x="167">🟫</tspan><tspan x="190">🟫</tspan><tspan x="213">🟫</tspan><tspan x="236">🟫</tspan><tspan x="259">🟫</tspan><tspan x="282">🟫</tspan><tspan x="305">⛰️</tspan><tspan x="328">🟫</tspan><tspan x="351">🟫</tspan><tspan x="374">🟫</tspan></text>
<text y="310" class="map" text-anchor="middle"><tspan x="29">🟫</tspan><tspan x="52">🌿</tspan><tspan x="75">🟫</tspan><tspan x="98">🟫</tspan><tspan x="121">🌊</tspan><tspan x="144">🟫</tspan><tspan x="167">🟫</tspan><tspan x="190">🟫</tspan><tspan x="213">🟫</tspan><tspan x="236">🟫</tspan><tspan x="259">🟫</tspan><tspan x="282">🟫</tspan><tspan x="305">🌼</tspan><tspan x="328">🟫</tspan><tspan x="351">🟫</tspan><tspan x="374">🟫</tspan></text>
<text x="18" y="334" class="dim">🐾 12 animals · 🌱 13 plants</text><animate attributeName="opacity" dur="18.2s" repeatCount="indefinite" calcMode="discrete" keyTimes="0;0.1429;0.2857;1" values="0;1;1;0"/></g><g opacity="0"><text x="18" y="70" class="p">&gt;&gt; <tspan class="cmd">smite 7, 4</tspan></text>
<text x="18" y="94" class="hdr">☀️  Terra — day 2</text>
<text y="118" class="map" text-anchor="middle"><tspan x="29">🌼</tspan><tspan x="52">🟫</tspan><tspan x="75">🟫</tspan><tspan x="98">🟫</tspan><tspan x="121">🟫</tspan><tspan x="144">🟫</tspan><tspan x="167">🟫</tspan><tspan x="190">🟫</tspan><tspan x="213">🟫</tspan><tspan x="236">🟫</tspan><tspan x="259">🐇</tspan><tspan x="282">🌼</tspan><tspan x="305">🟫</tspan><tspan x="328">🟫</tspan><tspan x="351">🟫</tspan><tspan x="374">🟫</tspan></text>
<text y="142" class="map" text-anchor="middle"><tspan x="29">🌼</tspan><tspan x="52">🟫</tspan><tspan x="75">🟫</tspan><tspan x="98">🟫</tspan><tspan x="121">🟫</tspan><tspan x="144">🟫</tspan><tspan x="167">🟫</tspan><tspan x="190">🟫</tspan><tspan x="213">🟫</tspan><tspan x="236">🟫</tspan><tspan x="259">🪷</tspan><tspan x="282">🟫</tspan><tspan x="305">🟫</tspan><tspan x="328">🟫</tspan><tspan x="351">🟫</tspan><tspan x="374">🟫</tspan></text>
<text y="166" class="map" text-anchor="middle"><tspan x="29">🟫</tspan><tspan x="52">🟫</tspan><tspan x="75">🟫</tspan><tspan x="98">🌿</tspan><tspan x="121">🟫</tspan><tspan x="144">🌿</tspan><tspan x="167">🌿</tspan><tspan x="190">🟨</tspan><tspan x="213">🟫</tspan><tspan x="236">🌊</tspan><tspan x="259">🪷</tspan><tspan x="282">🪷</tspan><tspan x="305">🟫</tspan><tspan x="328">🌿</tspan><tspan x="351">🟫</tspan><tspan x="374">🟫</tspan></text>
<text y="190" class="map" text-anchor="middle"><tspan x="29">🟫</tspan><tspan x="52">🟫</tspan><tspan x="75">🟫</tspan><tspan x="98">🐇</tspan><tspan x="121">🟫</tspan><tspan x="144">🟫</tspan><tspan x="167">🟨</tspan><tspan x="190">🟨</tspan><tspan x="213">🐇</tspan><tspan x="236">🟫</tspan><tspan x="259">🪷</tspan><tspan x="282">🦅</tspan><tspan x="305">⛰️</tspan><tspan x="328">🟫</tspan><tspan x="351">🟫</tspan><tspan x="374">🟫</tspan></text>
<text y="214" class="map" text-anchor="middle"><tspan x="29">🟫</tspan><tspan x="52">🟫</tspan><tspan x="75">🐢</tspan><tspan x="98">🟫</tspan><tspan x="121">🟫</tspan><tspan x="144">🟫</tspan><tspan x="167">🔥</tspan><tspan x="190">🔥</tspan><tspan x="213">🟫</tspan><tspan x="236">🟫</tspan><tspan x="259">🟫</tspan><tspan x="282">⛰️</tspan><tspan x="305">⛰️</tspan><tspan x="328">🌲</tspan><tspan x="351">🟫</tspan><tspan x="374">🟫</tspan></text>
<text y="238" class="map" text-anchor="middle"><tspan x="29">🟫</tspan><tspan x="52">🟫</tspan><tspan x="75">🟫</tspan><tspan x="98">🌿</tspan><tspan x="121">🟫</tspan><tspan x="144">🟫</tspan><tspan x="167">🟫</tspan><tspan x="190">🟫</tspan><tspan x="213">🟫</tspan><tspan x="236">🟫</tspan><tspan x="259">⛰️</tspan><tspan x="282">⛰️</tspan><tspan x="305">🌲</tspan><tspan x="328">🌲</tspan><tspan x="351">🌲</tspan><tspan x="374">🟫</tspan></text>
<text y="262" class="map" text-anchor="middle"><tspan x="29">🟫</tspan><tspan x="52">🟫</tspan><tspan x="75">🟫</tspan><tspan x="98">🟫</tspan><tspan x="121">🌊</tspan><tspan x="144">🌼</tspan><tspan x="167">🟫</tspan><tspan x="190">🐇</tspan><tspan x="213">🟫</tspan><tspan x="236">🟫</tspan><tspan x="259">🟫</tspan><tspan x="282">⛰️</tspan><tspan x="305">⛰️</tspan><tspan x="328">🐇</tspan><tspan x="351">🟫</tspan><tspan x="374">🟫</tspan></text>
<text y="286" class="map" text-anchor="middle"><tspan x="29">🟫</tspan><tspan x="52">🟫</tspan><tspan x="75">🟫</tspan><tspan x="98">🌊</tspan><tspan x="121">🌊</tspan><tspan x="144">🐟</tspan><tspan x="167">🐇</tspan><tspan x="190">🟫</tspan><tspan x="213">🟫</tspan><tspan x="236">🟫</tspan><tspan x="259">🟫</tspan><tspan x="282">🟫</tspan><tspan x="305">⛰️</tspan><tspan x="328">🟫</tspan><tspan x="351">🟫</tspan><tspan x="374">🟫</tspan></text>
<text y="310" class="map" text-anchor="middle"><tspan x="29">🟫</tspan><tspan x="52">🌿</tspan><tspan x="75">🟫</tspan><tspan x="98">🟫</tspan><tspan x="121">🌊</tspan><tspan x="144">🟫</tspan><tspan x="167">🟫</tspan><tspan x="190">🟫</tspan><tspan x="213">🟫</tspan><tspan x="236">🟫</tspan><tspan x="259">🟫</tspan><tspan x="282">🟫</tspan><tspan x="305">🌼</tspan><tspan x="328">🟫</tspan><tspan x="351">🟫</tspan><tspan x="374">🟫</tspan></text>
<text x="18" y="334" class="dim">🐾 12 animals · 🌱 15 plants</text><animate attributeName="opacity" dur="18.2s" repeatCount="indefinite" calcMode="discrete" keyTimes="0;0.2857;0.4286;1" values="0;1;1;0"/></g><g opacity="0"><text x="18" y="70" class="p">&gt;&gt; <tspan class="cmd">pass 3</tspan></text>
<text x="18" y="94" class="hdr">☀️  Terra — day 5</text>
<text y="118" class="map" text-anchor="middle"><tspan x="29">🌼</tspan><tspan x="52">🌼</tspan><tspan x="75">🟫</tspan><tspan x="98">🟫</tspan><tspan x="121">🟫</tspan><tspan x="144">🟫</tspan><tspan x="167">🟫</tspan><tspan x="190">🟫</tspan><tspan x="213">🟫</tspan><tspan x="236">🟫</tspan><tspan x="259">🌼</tspan><tspan x="282">🌼</tspan><tspan x="305">🟫</tspan><tspan x="328">🟫</tspan><tspan x="351">🟫</tspan><tspan x="374">🟫</tspan></text>
<text y="142" class="map" text-anchor="middle"><tspan x="29">🌼</tspan><tspan x="52">🟫</tspan><tspan x="75">🟫</tspan><tspan x="98">🟫</tspan><tspan x="121">🟫</tspan><tspan x="144">🌿</tspan><tspan x="167">🌿</tspan><tspan x="190">🟫</tspan><tspan x="213">🟫</tspan><tspan x="236">🟫</tspan><tspan x="259">🪷</tspan><tspan x="282">🌿</tspan><tspan x="305">🌿</tspan><tspan x="328">🟫</tspan><tspan x="351">🟫</tspan><tspan x="374">🟫</tspan></text>
<text y="166" class="map" text-anchor="middle"><tspan x="29">🟫</tspan><tspan x="52">🟫</tspan><tspan x="75">🟫</tspan><tspan x="98">🌿</tspan><tspan x="121">🌿</tspan><tspan x="144">🌿</tspan><tspan x="167">🌿</tspan><tspan x="190">🟨</tspan><tspan x="213">🟫</tspan><tspan x="236">🐟</tspan><tspan x="259">🪷</tspan><tspan x="282">🪷</tspan><tspan x="305">🌿</tspan><tspan x="328">🌿</tspan><tspan x="351">🌿</tspan><tspan x="374">🟫</tspan></text>
<text y="190" class="map" text-anchor="middle"><tspan x="29">🟫</tspan><tspan x="52">🟫</tspan><tspan x="75">🐢</tspan><tspan x="98">🟫</tspan><tspan x="121">🟫</tspan><tspan x="144">🔥</tspan><tspan x="167">🟨</tspan><tspan x="190">🟨</tspan><tspan x="213">🟨</tspan><tspan x="236">🐇</tspan><tspan x="259">🪷</tspan><tspan x="282">🟫</tspan><tspan x="305">⛰️</tspan><tspan x="328">🟫</tspan><tspan x="351">🟫</tspan><tspan x="374">🟫</tspan></text>
<text y="214" class="map" text-anchor="middle"><tspan x="29">🟫</tspan><tspan x="52">🟫</tspan><tspan x="75">🟫</tspan><tspan x="98">🟫</tspan><tspan x="121">🔥</tspan><tspan x="144">◾</tspan><tspan x="167">◾</tspan><tspan x="190">◾</tspan><tspan x="213">◾</tspan><tspan x="236">🔥</tspan><tspan x="259">🟫</tspan><tspan x="282">⛰️</tspan><tspan x="305">⛰️</tspan><tspan x="328">🌲</tspan><tspan x="351">🟫</tspan><tspan x="374">🟫</tspan></text>
<text y="238" class="map" text-anchor="middle"><tspan x="29">🟫</tspan><tspan x="52">🟫</tspan><tspan x="75">🌿</tspan><tspan x="98">🌿</tspan><tspan x="121">🐇</tspan><tspan x="144">🟫</tspan><tspan x="167">🟫</tspan><tspan x="190">🟫</tspan><tspan x="213">🔥</tspan><tspan x="236">🔥</tspan><tspan x="259">🦅</tspan><tspan x="282">⛰️</tspan><tspan x="305">🌲</tspan><tspan x="328">🌲</tspan><tspan x="351">🌲</tspan><tspan x="374">🟫</tspan></text>
<text y="262" class="map" text-anchor="middle"><tspan x="29">🟫</tspan><tspan x="52">🐇</tspan><tspan x="75">🟫</tspan><tspan x="98">🟫</tspan><tspan x="121">🌊</tspan><tspan x="144">🌼</tspan><tspan x="167">🌼</tspan><tspan x="190">🟫</tspan><tspan x="213">🟫</tspan><tspan x="236">🟫</tspan><tspan x="259">🟫</tspan><tspan x="282">⛰️</tspan><tspan x="305">⛰️</tspan><tspan x="328">🌲</tspan><tspan x="351">🟫</tspan><tspan x="374">🟫</tspan></text>
<text y="286" class="map" text-anchor="middle"><tspan x="29">🟫</tspan><tspan x="52">🌿</tspan><tspan x="75">🟫</tspan><tspan x="98">🌊</tspan><tspan x="121">🐟</tspan><tspan x="144">🌊</tspan><tspan x="167">🟫</tspan><tspan x="190">🟫</tspan><tspan x="213">🐇</tspan><tspan x="236">🟫</tspan><tspan x="259">🟫</tspan><tspan x="282">🟫</tspan><tspan x="305">⛰️</tspan><tspan x="328">🟫</tspan><tspan x="351">🟫</tspan><tspan x="374">🟫</tspan></text>
<text y="310" class="map" text-anchor="middle"><tspan x="29">🟫</tspan><tspan x="52">🌿</tspan><tspan x="75">🌿</tspan><tspan x="98">🟫</tspan><tspan x="121">🌊</tspan><tspan x="144">🟫</tspan><tspan x="167">🟫</tspan><tspan x="190">🟫</tspan><tspan x="213">🟫</tspan><tspan x="236">🟫</tspan><tspan x="259">🟫</tspan><tspan x="282">🟫</tspan><tspan x="305">🌼</tspan><tspan x="328">🐇</tspan><tspan x="351">🟫</tspan><tspan x="374">🟫</tspan></text>
<text x="18" y="334" class="dim">🐾 12 animals · 🌱 28 plants</text><animate attributeName="opacity" dur="18.2s" repeatCount="indefinite" calcMode="discrete" keyTimes="0;0.4286;0.5714;1" values="0;1;1;0"/></g><g opacity="0"><text x="18" y="70" class="p">&gt;&gt; <tspan class="cmd">winter!</tspan></text>
<text x="18" y="94" class="hdr">❄️  Terra — day 7</text>
<text y="118" class="map" text-anchor="middle"><tspan x="29">🌼</tspan><tspan x="52">🌼</tspan><tspan x="75">🟫</tspan><tspan x="98">🟫</tspan><tspan x="121">🟫</tspan><tspan x="144">🟫</tspan><tspan x="167">🟫</tspan><tspan x="190">🟫</tspan><tspan x="213">🟫</tspan><tspan x="236">🟫</tspan><tspan x="259">🌼</tspan><tspan x="282">🌼</tspan><tspan x="305">🟫</tspan><tspan x="328">🟫</tspan><tspan x="351">🟫</tspan><tspan x="374">🟫</tspan></text>
<text y="142" class="map" text-anchor="middle"><tspan x="29">🌼</tspan><tspan x="52">🟫</tspan><tspan x="75">🟫</tspan><tspan x="98">🟫</tspan><tspan x="121">🟫</tspan><tspan x="144">🌿</tspan><tspan x="167">🌿</tspan><tspan x="190">🟫</tspan><tspan x="213">🟫</tspan><tspan x="236">🟫</tspan><tspan x="259">🪷</tspan><tspan x="282">🌿</tspan><tspan x="305">🌿</tspan><tspan x="328">🟫</tspan><tspan x="351">🟫</tspan><tspan x="374">🟫</tspan></text>
<text y="166" class="map" text-anchor="middle"><tspan x="29">🟫</tspan><tspan x="52">🟫</tspan><tspan x="75">🟫</tspan><tspan x="98">🌿</tspan><tspan x="121">🌿</tspan><tspan x="144">🌿</tspan><tspan x="167">🌿</tspan><tspan x="190">🟨</tspan><tspan x="213">🟫</tspan><tspan x="236">🐟</tspan><tspan x="259">🪷</tspan><tspan x="282">🪷</tspan><tspan x="305">🌿</tspan><tspan x="328">🌿</tspan><tspan x="351">🌿</tspan><tspan x="374">🟫</tspan></text>
<text y="190" class="map" text-anchor="middle"><tspan x="29">🟫</tspan><tspan x="52">🟫</tspan><tspan x="75">🐇</tspan><tspan x="98">🟫</tspan><tspan x="121">🟫</tspan><tspan x="144">◾</tspan><tspan x="167">🟨</tspan><tspan x="190">🟨</tspan><tspan x="213">🟨</tspan><tspan x="236">🐇</tspan><tspan x="259">🪷</tspan><tspan x="282">🟫</tspan><tspan x="305">⛰️</tspan><tspan x="328">🟫</tspan><tspan x="351">🟫</tspan><tspan x="374">🟫</tspan></text>
<text y="214" class="map" text-anchor="middle"><tspan x="29">🟫</tspan><tspan x="52">🟫</tspan><tspan x="75">🟫</tspan><tspan x="98">🟫</tspan><tspan x="121">◾</tspan><tspan x="144">◾</tspan><tspan x="167">◾</tspan><tspan x="190">◾</tspan><tspan x="213">◾</tspan><tspan x="236">◾</tspan><tspan x="259">🟫</tspan><tspan x="282">⛰️</tspan><tspan x="305">⛰️</tspan><tspan x="328">🌲</tspan><tspan x="351">🟫</tspan><tspan x="374">🟫</tspan></text>
<text y="238" class="map" text-anchor="middle"><tspan x="29">🟫</tspan><tspan x="52">🟫</tspan><tspan x="75">🌿</tspan><tspan x="98">🌿</tspan><tspan x="121">🐇</tspan><tspan x="144">🟫</tspan><tspan x="167">🟫</tspan><tspan x="190">🟫</tspan><tspan x="213">◾</tspan><tspan x="236">◾</tspan><tspan x="259">⛰️</tspan><tspan x="282">⛰️</tspan><tspan x="305">🦅</tspan><tspan x="328">🌲</tspan><tspan x="351">🌲</tspan><tspan x="374">🟫</tspan></text>
<text y="262" class="map" text-anchor="middle"><tspan x="29">🟫</tspan><tspan x="52">🐇</tspan><tspan x="75">🟫</tspan><tspan x="98">🟫</tspan><tspan x="121">🧊</tspan><tspan x="144">🌼</tspan><tspan x="167">🌼</tspan><tspan x="190">🟫</tspan><tspan x="213">🟫</tspan><tspan x="236">🐇</tspan><tspan x="259">🟫</tspan><tspan x="282">⛰️</tspan><tspan x="305">⛰️</tspan><tspan x="328">🌲</tspan><tspan x="351">🟫</tspan><tspan x="374">🟫</tspan></text>
<text y="286" class="map" text-anchor="middle"><tspan x="29">🟫</tspan><tspan x="52">🌿</tspan><tspan x="75">🟫</tspan><tspan x="98">🧊</tspan><tspan x="121">🐟</tspan><tspan x="144">🧊</tspan><tspan x="167">🟫</tspan><tspan x="190">🟫</tspan><tspan x="213">🟫</tspan><tspan x="236">🟫</tspan><tspan x="259">🟫</tspan><tspan x="282">🟫</tspan><tspan x="305">⛰️</tspan><tspan x="328">🟫</tspan><tspan x="351">🟫</tspan><tspan x="374">🟫</tspan></text>
<text y="310" class="map" text-anchor="middle"><tspan x="29">🟫</tspan><tspan x="52">🌿</tspan><tspan x="75">🌿</tspan><tspan x="98">🟫</tspan><tspan x="121">🧊</tspan><tspan x="144">🟫</tspan><tspan x="167">🟫</tspan><tspan x="190">🟫</tspan><tspan x="213">🟫</tspan><tspan x="236">🟫</tspan><tspan x="259">🟫</tspan><tspan x="282">🟫</tspan><tspan x="305">🌼</tspan><tspan x="328">🐇</tspan><tspan x="351">🟫</tspan><tspan x="374">🟫</tspan></text>
<text x="18" y="334" class="dim">🐾 12 animals · 🌱 28 plants</text><animate attributeName="opacity" dur="18.2s" repeatCount="indefinite" calcMode="discrete" keyTimes="0;0.5714;0.7143;1" values="0;1;1;0"/></g><g opacity="0"><text x="18" y="70" class="p">&gt;&gt; <tspan class="cmd">pass 5</tspan></text>
<text x="18" y="94" class="hdr">❄️  Terra — day 12</text>
<text y="118" class="map" text-anchor="middle"><tspan x="29">🟩</tspan><tspan x="52">🌼</tspan><tspan x="75">🟫</tspan><tspan x="98">🟫</tspan><tspan x="121">🟫</tspan><tspan x="144">🟫</tspan><tspan x="167">🟫</tspan><tspan x="190">🟫</tspan><tspan x="213">🟫</tspan><tspan x="236">🟫</tspan><tspan x="259">🌼</tspan><tspan x="282">🟩</tspan><tspan x="305">🟫</tspan><tspan x="328">🟫</tspan><tspan x="351">🟫</tspan><tspan x="374">🟫</tspan></text>
<text y="142" class="map" text-anchor="middle"><tspan x="29">🟩</tspan><tspan x="52">🟫</tspan><tspan x="75">🟫</tspan><tspan x="98">🐢</tspan><tspan x="121">🟫</tspan><tspan x="144">🌿</tspan><tspan x="167">🌿</tspan><tspan x="190">🟫</tspan><tspan x="213">🟫</tspan><tspan x="236">🟫</tspan><tspan x="259">🧊</tspan><tspan x="282">🌿</tspan><tspan x="305">🌿</tspan><tspan x="328">🟫</tspan><tspan x="351">🟫</tspan><tspan x="374">🟫</tspan></text>
<text y="166" class="map" text-anchor="middle"><tspan x="29">🟫</tspan><tspan x="52">🟫</tspan><tspan x="75">🟫</tspan><tspan x="98">🌿</tspan><tspan x="121">🌿</tspan><tspan x="144">🌿</tspan><tspan x="167">🌿</tspan><tspan x="190">🟨</tspan><tspan x="213">🟫</tspan><tspan x="236">🐟</tspan><tspan x="259">🪷</tspan><tspan x="282">🧊</tspan><tspan x="305">🌿</tspan><tspan x="328">🌿</tspan><tspan x="351">🌿</tspan><tspan x="374">🟫</tspan></text>
<text y="190" class="map" text-anchor="middle"><tspan x="29">🟫</tspan><tspan x="52">🟫</tspan><tspan x="75">🟫</tspan><tspan x="98">🟫</tspan><tspan x="121">🟫</tspan><tspan x="144">◾</tspan><tspan x="167">🟨</tspan><tspan x="190">🟨</tspan><tspan x="213">🟨</tspan><tspan x="236">🐇</tspan><tspan x="259">🧊</tspan><tspan x="282">🟫</tspan><tspan x="305">⛰️</tspan><tspan x="328">🟫</tspan><tspan x="351">🟫</tspan><tspan x="374">🟫</tspan></text>
<text y="214" class="map" text-anchor="middle"><tspan x="29">🟫</tspan><tspan x="52">🐇</tspan><tspan x="75">🟫</tspan><tspan x="98">🟫</tspan><tspan x="121">◾</tspan><tspan x="144">◾</tspan><tspan x="167">◾</tspan><tspan x="190">◾</tspan><tspan x="213">🦅</tspan><tspan x="236">◾</tspan><tspan x="259">🟫</tspan><tspan x="282">⛰️</tspan><tspan x="305">⛰️</tspan><tspan x="328">🌲</tspan><tspan x="351">🟫</tspan><tspan x="374">🟫</tspan></text>
<text y="238" class="map" text-anchor="middle"><tspan x="29">🟫</tspan><tspan x="52">🟫</tspan><tspan x="75">🌿</tspan><tspan x="98">🌿</tspan><tspan x="121">🐇</tspan><tspan x="144">🟫</tspan><tspan x="167">🟫</tspan><tspan x="190">🟫</tspan><tspan x="213">◾</tspan><tspan x="236">◾</tspan><tspan x="259">⛰️</tspan><tspan x="282">⛰️</tspan><tspan x="305">🌲</tspan><tspan x="328">🌲</tspan><tspan x="351">🌲</tspan><tspan x="374">🟫</tspan></text>
<text y="262" class="map" text-anchor="middle"><tspan x="29">🟫</tspan><tspan x="52">🟫</tspan><tspan x="75">🟫</tspan><tspan x="98">🟫</tspan><tspan x="121">🧊</tspan><tspan x="144">🟩</tspan><tspan x="167">🌼</tspan><tspan x="190">🟫</tspan><tspan x="213">🟫</tspan><tspan x="236">🟫</tspan><tspan x="259">🟫</tspan><tspan x="282">⛰️</tspan><tspan x="305">⛰️</tspan><tspan x="328">🌲</tspan><tspan x="351">🟫</tspan><tspan x="374">🟫</tspan></text>
<text y="286" class="map" text-anchor="middle"><tspan x="29">🟫</tspan><tspan x="52">🌿</tspan><tspan x="75">🐇</tspan><tspan x="98">🧊</tspan><tspan x="121">🐟</tspan><tspan x="144">🧊</tspan><tspan x="167">🟫</tspan><tspan x="190">🟫</tspan><tspan x="213">🐇</tspan><tspan x="236">🟫</tspan><tspan x="259">🟫</tspan><tspan x="282">🟫</tspan><tspan x="305">⛰️</tspan><tspan x="328">🟫</tspan><tspan x="351">🟫</tspan><tspan x="374">🟫</tspan></text>
<text y="310" class="map" text-anchor="middle"><tspan x="29">🟫</tspan><tspan x="52">🌿</tspan><tspan x="75">🌿</tspan><tspan x="98">🟫</tspan><tspan x="121">🧊</tspan><tspan x="144">🟫</tspan><tspan x="167">🟫</tspan><tspan x="190">🟫</tspan><tspan x="213">🟫</tspan><tspan x="236">🐇</tspan><tspan x="259">🟫</tspan><tspan x="282">🟫</tspan><tspan x="305">🟩</tspan><tspan x="328">🟫</tspan><tspan x="351">🟫</tspan><tspan x="374">🟫</tspan></text>
<text x="18" y="334" class="dim">🐾 12 animals · 🌱 20 plants</text><animate attributeName="opacity" dur="18.2s" repeatCount="indefinite" calcMode="discrete" keyTimes="0;0.7143;0.8571;1" values="0;1;1;0"/></g><g opacity="0"><text x="18" y="70" class="p">&gt;&gt; <tspan class="cmd">spring!</tspan></text>
<text x="18" y="94" class="hdr">☀️  Terra — day 14</text>
<text y="118" class="map" text-anchor="middle"><tspan x="29">🟩</tspan><tspan x="52">🟩</tspan><tspan x="75">🟫</tspan><tspan x="98">🟫</tspan><tspan x="121">🐢</tspan><tspan x="144">🟫</tspan><tspan x="167">🟫</tspan><tspan x="190">🟫</tspan><tspan x="213">🟫</tspan><tspan x="236">🟫</tspan><tspan x="259">🐇</tspan><tspan x="282">🟩</tspan><tspan x="305">🟫</tspan><tspan x="328">🟫</tspan><tspan x="351">🟫</tspan><tspan x="374">🟫</tspan></text>
<text y="142" class="map" text-anchor="middle"><tspan x="29">🟩</tspan><tspan x="52">🟫</tspan><tspan x="75">🟫</tspan><tspan x="98">🟫</tspan><tspan x="121">🟫</tspan><tspan x="144">🌿</tspan><tspan x="167">🌿</tspan><tspan x="190">🟫</tspan><tspan x="213">🟫</tspan><tspan x="236">🟫</tspan><tspan x="259">🌊</tspan><tspan x="282">🌿</tspan><tspan x="305">🌿</tspan><tspan x="328">🟫</tspan><tspan x="351">🟫</tspan><tspan x="374">🟫</tspan></text>
<text y="166" class="map" text-anchor="middle"><tspan x="29">🟫</tspan><tspan x="52">🟫</tspan><tspan x="75">🟫</tspan><tspan x="98">🟩</tspan><tspan x="121">🌿</tspan><tspan x="144">🌿</tspan><tspan x="167">🟩</tspan><tspan x="190">🟨</tspan><tspan x="213">🟫</tspan><tspan x="236">🐟</tspan><tspan x="259">🐟</tspan><tspan x="282">🌊</tspan><tspan x="305">🌿</tspan><tspan x="328">🟩</tspan><tspan x="351">🌿</tspan><tspan x="374">🟫</tspan></text>
<text y="190" class="map" text-anchor="middle"><tspan x="29">🟫</tspan><tspan x="52">🟫</tspan><tspan x="75">🟫</tspan><tspan x="98">🟫</tspan><tspan x="121">🟫</tspan><tspan x="144">◾</tspan><tspan x="167">🟨</tspan><tspan x="190">🟨</tspan><tspan x="213">🟨</tspan><tspan x="236">🐇</tspan><tspan x="259">🌊</tspan><tspan x="282">🟫</tspan><tspan x="305">⛰️</tspan><tspan x="328">🟫</tspan><tspan x="351">🟫</tspan><tspan x="374">🟫</tspan></text>
<text y="214" class="map" text-anchor="middle"><tspan x="29">🟫</tspan><tspan x="52">🐇</tspan><tspan x="75">🟫</tspan><tspan x="98">🟫</tspan><tspan x="121">◾</tspan><tspan x="144">◾</tspan><tspan x="167">◾</tspan><tspan x="190">◾</tspan><tspan x="213">◾</tspan><tspan x="236">◾</tspan><tspan x="259">🟫</tspan><tspan x="282">⛰️</tspan><tspan x="305">⛰️</tspan><tspan x="328">🌲</tspan><tspan x="351">🟫</tspan><tspan x="374">🟫</tspan></text>
<text y="238" class="map" text-anchor="middle"><tspan x="29">🟫</tspan><tspan x="52">🟫</tspan><tspan x="75">🌿</tspan><tspan x="98">🌿</tspan><tspan x="121">🐇</tspan><tspan x="144">🟫</tspan><tspan x="167">🟫</tspan><tspan x="190">🟫</tspan><tspan x="213">◾</tspan><tspan x="236">◾</tspan><tspan x="259">⛰️</tspan><tspan x="282">⛰️</tspan><tspan x="305">🌲</tspan><tspan x="328">🌲</tspan><tspan x="351">🌲</tspan><tspan x="374">🟫</tspan></text>
<text y="262" class="map" text-anchor="middle"><tspan x="29">🟫</tspan><tspan x="52">🐇</tspan><tspan x="75">🌿</tspan><tspan x="98">🟫</tspan><tspan x="121">🌊</tspan><tspan x="144">🟩</tspan><tspan x="167">🟩</tspan><tspan x="190">🟫</tspan><tspan x="213">🟫</tspan><tspan x="236">🐇</tspan><tspan x="259">🟫</tspan><tspan x="282">⛰️</tspan><tspan x="305">⛰️</tspan><tspan x="328">🌲</tspan><tspan x="351">🟫</tspan><tspan x="374">🟫</tspan></text>
<text y="286" class="map" text-anchor="middle"><tspan x="29">🟫</tspan><tspan x="52">🌿</tspan><tspan x="75">🌿</tspan><tspan x="98">🌊</tspan><tspan x="121">🐟</tspan><tspan x="144">🌊</tspan><tspan x="167">🟫</tspan><tspan x="190">🟫</tspan><tspan x="213">🟫</tspan><tspan x="236">🟫</tspan><tspan x="259">🐇</tspan><tspan x="282">🟫</tspan><tspan x="305">⛰️</tspan><tspan x="328">🟫</tspan><tspan x="351">🟫</tspan><tspan x="374">🟫</tspan></text>
<text y="310" class="map" text-anchor="middle"><tspan x="29">🟫</tspan><tspan x="52">🟩</tspan><tspan x="75">🌿</tspan><tspan x="98">🟫</tspan><tspan x="121">🌊</tspan><tspan x="144">🟫</tspan><tspan x="167">🟫</tspan><tspan x="190">🟫</tspan><tspan x="213">🦅</tspan><tspan x="236">🟫</tspan><tspan x="259">🟫</tspan><tspan x="282">🟫</tspan><tspan x="305">🟩</tspan><tspan x="328">🟫</tspan><tspan x="351">🟫</tspan><tspan x="374">🟫</tspan></text>
<text x="18" y="334" class="dim">🐾 12 animals · 🌱 14 plants</text><animate attributeName="opacity" dur="18.2s" repeatCount="indefinite" calcMode="discrete" keyTimes="0;0.8571;1.0000;1" values="0;1;1;1"/></g>
</svg>